<svg viewBox="0 0 100 100">
    <path d="M24.583,69.751C13.693,69.751 4.833,60.89 4.833,49.999C4.833,39.108 13.693,30.249 24.583,30.249C35.473,30.249 44.333,39.108 44.333,49.999C44.333,60.89 35.473,69.751 24.583,69.751" style="fill:rgb(234,76,137)"/>
    <path d="M24.583,28.249C12.59,28.249 2.833,38.006 2.833,49.999C2.833,61.993 12.59,71.751 24.583,71.751C36.576,71.751 46.333,61.993 46.333,49.999C46.333,38.006 36.576,28.249 24.583,28.249M24.583,32.249C34.386,32.249 42.333,40.196 42.333,49.999C42.333,59.802 34.386,67.751 24.583,67.751C14.78,67.751 6.833,59.802 6.833,49.999C6.833,40.196 14.78,32.249 24.583,32.249" style="fill:white"/>
    <path d="M50,69.751C39.11,69.751 30.25,60.89 30.25,49.999C30.25,39.108 39.11,30.249 50,30.249C60.891,30.249 69.75,39.108 69.75,49.999C69.75,60.89 60.891,69.751 50,69.751" style="fill:rgb(232,80,104)"/>
    <path d="M50,28.249C38.007,28.249 28.25,38.006 28.25,49.999C28.25,61.993 38.007,71.751 50,71.751C61.993,71.751 71.75,61.993 71.75,49.999C71.75,38.006 61.993,28.249 50,28.249M50,32.249C59.803,32.249 67.75,40.196 67.75,49.999C67.75,59.802 59.803,67.751 50,67.751C40.197,67.751 32.25,59.802 32.25,49.999C32.25,40.196 40.197,32.249 50,32.249" style="fill:white"/>
    <path d="M75.417,69.751C64.526,69.751 55.667,60.89 55.667,49.999C55.667,39.108 64.526,30.249 75.417,30.249C86.308,30.249 95.167,39.108 95.167,49.999C95.167,60.89 86.308,69.751 75.417,69.751" style="fill:rgb(229,94,78)"/>
    <path d="M75.417,28.249C63.424,28.249 53.667,38.006 53.667,49.999C53.667,61.993 63.424,71.751 75.417,71.751C87.41,71.751 97.167,61.993 97.167,49.999C97.167,38.006 87.41,28.249 75.417,28.249M75.417,32.249C85.22,32.249 93.167,40.196 93.167,49.999C93.167,59.802 85.22,67.751 75.417,67.751C65.614,67.751 57.667,59.802 57.667,49.999C57.667,40.196 65.614,32.249 75.417,32.249" style="fill:white"/>
</svg>